<svg t="1727421149914" class="icon" viewBox="0 0 1024 1024" version="1.1" xmlns="http://www.w3.org/2000/svg" p-id="5210" width="40" height="40"><path d="M155.306667 431.957333a106.325333 106.325333 0 1 0-107.349334-106.154666 106.666667 106.666667 0 0 0 107.349334 106.154666zM986.112 787.114667H365.738667a4.778667 4.778667 0 0 0-4.778667 4.608c0 4.778667 0 9.386667-1.365333 13.994666a192.170667 192.170667 0 0 1-11.946667 46.762667 22.869333 22.869333 0 0 0 2.389333 20.992 22.528 22.528 0 0 0 18.602667 9.898667h617.472A37.546667 37.546667 0 0 0 1024 846.336v-22.186667a37.376 37.376 0 0 0-37.888-37.034666zM425.301333 548.010667c4.778667-1.365333 11.264-3.242667 18.944-17.066667 1.365333-1.877333 8.704-13.482667 10.24-15.530667l102.4-140.629333a36.693333 36.693333 0 0 0-5.973333-52.053333l-7.168-5.12a37.717333 37.717333 0 0 0-51.2 10.410666l-93.696 128a24.576 24.576 0 0 1-17.066667 9.898667l-134.826666 19.626667a87.04 87.04 0 0 1-11.605334 0H92.672a89.088 89.088 0 0 0-89.429333 88.405333v221.866667A88.234667 88.234667 0 0 0 64.853333 878.933333l2.389334 1.024a107.52 107.52 0 0 0 25.429333 3.925334h125.098667A89.088 89.088 0 0 0 307.2 795.306667V595.968a25.258667 25.258667 0 0 1 19.456-24.576l96.938667-22.869333z" p-id="5211" fill="#5b57d1"></path><path d="M896.853333 122.538667H187.733333a71.168 71.168 0 0 0-62.293333 35.669333 4.608 4.608 0 0 0 0 5.12 4.778667 4.778667 0 0 0 4.778667 2.048 152.405333 152.405333 0 0 1 21.845333-1.536 161.28 161.28 0 0 1 162.986667 159.402667 155.477333 155.477333 0 0 1-43.52 108.032 4.949333 4.949333 0 0 0 0 5.802666 5.12 5.12 0 0 0 5.290666 2.389334 392.533333 392.533333 0 0 1 74.581334-9.045334 21.504 21.504 0 0 0 17.066666-8.704l92.16-124.245333a81.92 81.92 0 0 1 111.616-22.357333l15.530667 11.093333a77.653333 77.653333 0 0 1 12.970667 110.592l-119.466667 160.768q-4.437333 5.802667-9.216 11.264C409.6 635.904 362.666667 573.781333 358.4 648.533333v77.994667a4.949333 4.949333 0 0 0 1.536 3.584 4.778667 4.778667 0 0 0 3.413333 1.365333H896.853333a69.632 69.632 0 0 0 70.826667-68.266666V190.805333a69.632 69.632 0 0 0-70.826667-68.266666z m-65.024 523.264a30.890667 30.890667 0 0 1-30.72 30.890666H605.866667a30.890667 30.890667 0 0 1-30.890667-30.890666v-20.992a30.890667 30.890667 0 0 1 30.890667-30.890667h195.242666a30.890667 30.890667 0 0 1 30.72 30.890667z" p-id="5212" fill="#5b57d1"></path></svg>